<svg aria-hidden="true" version="1.1" xmlns="http://www.w3.org/2000/svg" xmlns:xlink="http://www.w3.org/1999/xlink" width="24" height="24" viewBox="0 0 24 24">
<defs>
<symbol id="user">
<path d="M17,8a5,5,0,1,1-5-5A5,5,0,0,1,17,8Zm-2,5H9a5,5,0,0,0-5,5H4a3,3,0,0,0,3,3H17a3,3,0,0,0,3-3h0A5,5,0,0,0,15,13Z" style="fill: none; stroke-linecap: round; stroke-linejoin: round;"></path>
</symbol>
<symbol id="plus-circle">
<circle cx="12" cy="12" r="9" style="fill: none; stroke-linecap: round; stroke-linejoin: round;"></circle><line x1="16.24" y1="12" x2="7.76" y2="12" style="fill: none; stroke-linecap: round; stroke-linejoin: round;"></line><line x1="12" y1="7.76" x2="12" y2="16.24" style="fill: none; stroke-linecap: round; stroke-linejoin: round;"></line>
</symbol>
<symbol id="search">
<circle cx="10" cy="10" r="7" style="fill: none; stroke-linecap: round; stroke-linejoin: round;"></circle><line x1="21" y1="21" x2="15" y2="15" style="fill: none; stroke-linecap: round; stroke-linejoin: round;"></line>
</symbol>
<symbol id="home">
<path d="M3,19V9.41a1,1,0,0,1,.29-.7L7,5l4,4V19ZM17,5H7l4,4V19H21V9.41a1,1,0,0,0-.29-.7Z" style="fill: none; stroke-linecap: round; stroke-linejoin: round;"></path>
</symbol>
<symbol id="bed">
<path id="primary" d="M21,16H3V13a1,1,0,0,1,1-1H20a1,1,0,0,1,1,1ZM19,7a1,1,0,0,0-1-1H6A1,1,0,0,0,5,7v5H19Zm1,11V16M4,18V16" style="fill: none; stroke-linecap: round; stroke-linejoin: round;"></path>
</symbol>
<symbol id="bathtub">
<path d="M21,13H3m5,6h8a4,4,0,0,0,4-4V13H4v2A4,4,0,0,0,8,19Zm11-6V6a3,3,0,0,0-3-3h0a3,3,0,0,0-3,3h0m2,2a2,2,0,0,0-2-2h0a2,2,0,0,0-2,2ZM6.5,19,6,21m11.5-2,.5,2" style="fill: none; stroke-linecap: round; stroke-linejoin: round;"></path>
</symbol>
<symbol id="heart">
<path d="M19.57,5.44a4.91,4.91,0,0,1,0,6.93L12,20,4.43,12.37A4.91,4.91,0,0,1,7.87,4a4.9,4.9,0,0,1,3.44,1.44,4.46,4.46,0,0,1,.69.88,4.46,4.46,0,0,1,.69-.88,4.83,4.83,0,0,1,6.88,0Z" style="fill: none; stroke-linecap: round; stroke-linejoin: round;"></path>
</symbol>
<symbol id="garage">
<path d="M3,21V7.65a1,1,0,0,1,.59-.91L12,3l8.41,3.74a1,1,0,0,1,.59.91V21m-5-6-.81-3.24a1,1,0,0,0-1-.76H9.78a1,1,0,0,0-1,.76L8,15Zm1,1a1,1,0,0,0-1-1H8a1,1,0,0,0-1,1v3H17Zm-7,4V19H8v1a1,1,0,0,0,1,1H9A1,1,0,0,0,10,20Zm5,1h0a1,1,0,0,0,1-1V19H14v1A1,1,0,0,0,15,21Z" style="fill: none; stroke: stroke-linecap: round; stroke-linejoin: round;"></path>
</symbol>
<symbol id="ruler">
<path id="primary" d="M19,21H3V5ZM14.69,3.29l-1.4,1.4a1,1,0,0,0,0,1.4L18.2,11H21V8.2L16.09,3.29A1,1,0,0,0,14.69,3.29Z" style="fill: none; stroke-linecap: round; stroke-linejoin: round;"></path>
</symbol>
<symbol id="phone">
<path d="M21,15v3.93a2,2,0,0,1-2.29,2A18,18,0,0,1,3.14,5.29,2,2,0,0,1,5.13,3H9a1,1,0,0,1,1,.89,10.74,10.74,0,0,0,1,3.78,1,1,0,0,1-.42,1.26l-.86.49a1,1,0,0,0-.33,1.46,14.08,14.08,0,0,0,3.69,3.69,1,1,0,0,0,1.46-.33l.49-.86A1,1,0,0,1,16.33,13a10.74,10.74,0,0,0,3.78,1A1,1,0,0,1,21,15Z" style="fill: none; stroke-linecap: round; stroke-linejoin: round;"></path>
</symbol>
<symbol id="verified">
<path d="M21.6,9.84A4.57,4.57,0,0,1,21.18,9,4,4,0,0,1,21,8.07a4.21,4.21,0,0,0-.64-2.16,4.25,4.25,0,0,0-1.87-1.28,4.77,4.77,0,0,1-.85-.43A5.11,5.11,0,0,1,17,3.54a4.2,4.2,0,0,0-1.8-1.4A4.22,4.22,0,0,0,13,2.21a4.24,4.24,0,0,1-1.94,0,4.22,4.22,0,0,0-2.24-.07A4.2,4.2,0,0,0,7,3.54a5.11,5.11,0,0,1-.66.66,4.77,4.77,0,0,1-.85.43A4.25,4.25,0,0,0,3.61,5.91,4.21,4.21,0,0,0,3,8.07,4,4,0,0,1,2.82,9a4.57,4.57,0,0,1-.42.82A4.3,4.3,0,0,0,1.63,12a4.3,4.3,0,0,0,.77,2.16,4,4,0,0,1,.42.82,4.11,4.11,0,0,1,.15.95,4.19,4.19,0,0,0,.64,2.16,4.25,4.25,0,0,0,1.87,1.28,4.77,4.77,0,0,1,.85.43,5.11,5.11,0,0,1,.66.66,4.12,4.12,0,0,0,1.8,1.4,3,3,0,0,0,.87.13A6.66,6.66,0,0,0,11,21.81a4,4,0,0,1,1.94,0,4.33,4.33,0,0,0,2.24.06,4.12,4.12,0,0,0,1.8-1.4,5.11,5.11,0,0,1,.66-.66,4.77,4.77,0,0,1,.85-.43,4.25,4.25,0,0,0,1.87-1.28A4.19,4.19,0,0,0,21,15.94a4.11,4.11,0,0,1,.15-.95,4.57,4.57,0,0,1,.42-.82A4.3,4.3,0,0,0,22.37,12,4.3,4.3,0,0,0,21.6,9.84Zm-4.89.87-5,5a1,1,0,0,1-1.42,0l-3-3a1,1,0,1,1,1.42-1.42L11,13.59l4.29-4.3a1,1,0,0,1,1.42,1.42Z"></path>
</symbol>
<symbol id="send">
<path d="M3.69,8.75,19.61,3.06a1,1,0,0,1,1.33,1.33L15.25,20.31a1,1,0,0,1-1.95,0l-2.51-6.52a1,1,0,0,0-.6-.6L3.67,10.7A1,1,0,0,1,3.69,8.75Z" style="fill: none; stroke-linecap: round; stroke-linejoin: round;"></path><line x1="10.62" y1="13.38" x2="13.57" y2="10.43" style="fill: none; stroke-linecap: round; stroke-linejoin: round;"></line>
</symbol>
<symbol id="map-location">
<path d="M16,9h2.33a1,1,0,0,1,1,.84l1.67,10A1,1,0,0,1,20,21H4a1,1,0,0,1-1-1.16l1.67-10a1,1,0,0,1,1-.84H8m8-2A4,4,0,0,0,8,7c0,4,4,8,4,8S16,11,16,7Z" style="fill: none; stroke-linecap: round; stroke-linejoin: round;"></path>
</symbol>
<symbol id="mail">
<rect x="3" y="5" width="18" height="14" rx="1" style="fill: none; stroke-linecap: round; stroke-linejoin: round;"></rect><polyline points="3 8 12 13 21 8" style="fill: none; stroke-linecap: round; stroke-linejoin: round;"></polyline>
</symbol>
<symbol id="home-2">
<path id="primary" d="M20,10V21H4V10H9l3-3,3,3Zm1,0L19.21,3.73a1,1,0,0,0-1-.73H5.75a1,1,0,0,0-1,.73L3,10H9l3-3,3,3h6ZM14,21V15H10v6Z" style="fill: none; stroke-linecap: round; stroke-linejoin: round;"></path>
</symbol>
<symbol id="apartment">
<path d="M3,6,21,3M3,6l1-.17L20,3.17,21,3M4,5.83V11H20V3.17ZM16,11H4V21H16Zm4,0V21m-8,0V16H8v5Z" style="fill: none; stroke-linecap: round; stroke-linejoin: round;"></path>
</symbol>
<symbol id="briefcase">
<path d="M13,15H11V13h2ZM16,4a1,1,0,0,0-1-1H9A1,1,0,0,0,8,4V7h8Zm5,16V8a1,1,0,0,0-1-1H4A1,1,0,0,0,3,8V20a1,1,0,0,0,1,1H20A1,1,0,0,0,21,20ZM11,14H8.64A4,4,0,0,1,5,11.58L3.18,7.43m17.64,0L19,11.58A4,4,0,0,1,15.36,14H13" style="fill: none; stroke-linecap: round; stroke-linejoin: round;"></path>
</symbol>
<symbol id="villa">
<path id="primary" d="M6,21V7.54a1,1,0,0,1,.45-.84L12,3l5.55,3.7a1,1,0,0,1,.45.84V21Zm4,0V15h4v6Z" style="fill: none; stroke-linecap: round; stroke-linejoin: round;"></path>
</symbol>
<symbol id="arrow-left">
<polyline points="10 19 3 12 10 5" style="fill: none; stroke-linecap: round; stroke-linejoin: round;"></polyline><line x1="3" y1="12" x2="21" y2="12" style="fill: none; stroke-linecap: round; stroke-linejoin: round;"></line>
</symbol>
<symbol id="calendar">
<path d="M20,21H4a1,1,0,0,1-1-1V5A1,1,0,0,1,4,4H20a1,1,0,0,1,1,1V20A1,1,0,0,1,20,21ZM20,4H4A1,1,0,0,0,3,5V9H21V5A1,1,0,0,0,20,4ZM17,3V5M12,3V5M7,3V5" style="fill: none; stroke-linecap: round; stroke-linejoin: round;"></path>
</symbol>
<symbol id="share">
<circle cx="6" cy="12" r="3" style="fill: none; stroke-linecap: round; stroke-linejoin: round;"></circle><circle cx="18" cy="18" r="3" style="fill: none; stroke-linecap: round; stroke-linejoin: round;"></circle><line x1="8.68" y1="13.34" x2="15.3" y2="16.65" style="fill: none; stroke-linecap: round; stroke-linejoin: round;"></line><circle cx="18" cy="6" r="3" style="fill: none; stroke-linecap: round; stroke-linejoin: round;"></circle><line x1="8.68" y1="10.66" x2="15.3" y2="7.35" style="fill: none; stroke-linecap: round; stroke-linejoin: round;"></line>
</symbol>
<symbol id="whatsapp">
<path d="M20.88,13.46A9,9,0,0,1,7.88,20L3,21l1-4.88a9,9,0,1,1,16.88-2.66ZM8.68,10.94,10.21,9.4,9.81,8H8s-.41,2.54,2.52,5.46S16,16,16,16V14.19l-1.4-.4-1.54,1.53" style="fill: none; stroke-linecap: round; stroke-linejoin: round;"></path>
</symbol>
<symbol id="menu">
<line x1="3" y1="18" x2="21" y2="18" style="fill: none; stroke-linecap: round; stroke-linejoin: round;"></line><line x1="3" y1="12" x2="21" y2="12" style="fill: none; stroke-linecap: round; stroke-linejoin: round;"></line><line x1="3" y1="6" x2="21" y2="6" style="fill: none; stroke-linecap: round; stroke-linejoin: round;"></line>
</symbol>
<symbol id="x">
<line x1="19" y1="19" x2="5" y2="5" style="fill: none; stroke-linecap: round; stroke-linejoin: round;"></line><line x1="19" y1="5" x2="5" y2="19" style="fill: none; stroke-linecap: round; stroke-linejoin: round;"></line>
</symbol>
<symbol id="home-glyph">
<path d="M21.71,12.71a1,1,0,0,1-1.42,0L20,12.42V20.3A1.77,1.77,0,0,1,18.17,22H16a1,1,0,0,1-1-1V15.1a1,1,0,0,0-1-1H10a1,1,0,0,0-1,1V21a1,1,0,0,1-1,1H5.83A1.77,1.77,0,0,1,4,20.3V12.42l-.29.29a1,1,0,0,1-1.42,0,1,1,0,0,1,0-1.42l9-9a1,1,0,0,1,1.42,0l9,9A1,1,0,0,1,21.71,12.71Z"></path>
</symbol>
<symbol id="search-glyph">
<circle cx="10" cy="10" r="8"></circle><path d="M21.71,21.71a1,1,0,0,1-1.42,0L15.61,17A8.67,8.67,0,0,0,17,15.61l4.68,4.68A1,1,0,0,1,21.71,21.71Z"></path>
</symbol>
<symbol id="create-glyph">
<path d="M12,2A10,10,0,1,0,22,12,10,10,0,0,0,12,2Zm4.24,11H13v3.24a1,1,0,0,1-2,0V13H7.76a1,1,0,1,1,0-2H11V7.76a1,1,0,1,1,2,0V11h3.24a1,1,0,0,1,0,2Z"></path>
</symbol>
<symbol id="favorite-glyph">
<path d="M20.28,4.74a5.82,5.82,0,0,0-8.28,0,5.82,5.82,0,0,0-8.28,0,5.94,5.94,0,0,0,0,8.34l7.57,7.62a1,1,0,0,0,1.42,0l7.57-7.62a5.91,5.91,0,0,0,0-8.34Z"></path>
</symbol>
<symbol id="plus">
<line x1="19" y1="12" x2="5" y2="12" style="fill: none; stroke-linecap: round; stroke-linejoin: round;"></line><line x1="12" y1="5" x2="12" y2="19" style="fill: none; stroke-linecap: round; stroke-linejoin: round;"></line>
</symbol>
<symbol id="minus">
<line x1="19" y1="12" x2="5" y2="12" style="fill: none; stroke-linecap: round; stroke-linejoin: round;"></line>
</symbol>
<symbol id="trash">
<path d="M4,7H20M16,7V4a1,1,0,0,0-1-1H9A1,1,0,0,0,8,4V7" style="fill: none; stroke-linecap: round; stroke-linejoin: round;"></path><path d="M6,7H18a0,0,0,0,1,0,0V20a1,1,0,0,1-1,1H7a1,1,0,0,1-1-1V7A0,0,0,0,1,6,7Z" style="fill: none; stroke-linecap: round; stroke-linejoin: round;"></path><line x1="10" y1="11" x2="10" y2="17" style="fill: none; stroke-linecap: round; stroke-linejoin: round;"></line><line x1="14" y1="11" x2="14" y2="17" style="fill: none; stroke-linecap: round; stroke-linejoin: round;"></line>
</symbol>
<defs>
</svg>



